<svg xmlns="http://www.w3.org/2000/svg" width="250" height="292.83" viewBox="0 0 25 29.283">
  <defs>
    <style>
      .cls-1 {
        fill: #052361;
      }

      .cls-2 {
        fill: #e0ca40;
      }
    </style>
  </defs>
  <path class="cls-1" d="M25,21.961,12.536,29.283C12.281,29.2.8,22.478,0,21.951V1.066c.274.144.514.275.759.4a13.193,13.193,0,0,0,3.2,1.162,8.674,8.674,0,0,0,6.666-1.19A13.206,13.206,0,0,0,12.294.175L12.5,0c.13.113.262.226.394.339a11.344,11.344,0,0,0,2.39,1.609,8.429,8.429,0,0,0,4.221.885,10.7,10.7,0,0,0,3.7-.9c.594-.257,1.171-.552,1.763-.834h0l.008.007c.006.007.015.016.015.024,0,.069.007.138.007.207Q25,11.638,25,21.961Z"/>
  <path class="cls-2" d="M12.437,14.347c.185.066.255.039.289-.127.025-.124.032-.253.046-.38s.037-.215.174-.238c.126.051.14.153.116.267-.031.144-.061.289-.1.43a.368.368,0,0,1-.455.315c-.2-.015-.391-.035-.586-.058-.082-.01-.157-.015-.209.067.035.119.131.134.233.134h1.012a.606.606,0,0,0,.254-.438c.022-.124.036-.26.237-.27a1,1,0,0,0,.754.649,1.17,1.17,0,0,0,1-.21,3.2,3.2,0,0,0-.485-.568c-.08.236.186.3.178.481-.095.174-.193.216-.33.1a6.474,6.474,0,0,1-.586-.537,6.217,6.217,0,0,1-.459-.575,1.256,1.256,0,0,1-.11-.251l.379-.151.005.035h.469c.18.2.39.433.6.668s.377.491.593.722a.183.183,0,0,0,0-.263q-.183-.249-.376-.491a14.547,14.547,0,0,0-1.344-1.442.57.57,0,0,1-.1-.8.557.557,0,0,1,.1-.083c.269.129.068.376.13.558.065.072.126.148.2.213a12.838,12.838,0,0,1,1.687,1.928,1.051,1.051,0,0,0,.539.382,3.792,3.792,0,0,0,.855.2c.106.012.222.016.254.154-.123.2-.226.247-.422.213a1.4,1.4,0,0,0-.405-.034,5.5,5.5,0,0,1-1.175.007c-.2-.015-.391,0-.587,0-.253,0-.506,0-.759,0-.2,0-.391-.024-.584-.008-.667.053-1.333.052-2,.039-.726-.014-1.453.013-2.18.023-.245,0-.49.015-.735.017a2.328,2.328,0,0,1-.252-.024c-.117-.211-.236-.422-.35-.636-.015-.029,0-.074,0-.134a.6.6,0,0,1,.2.005.47.47,0,0,1,.158.128c.277.31.314.328.752.327.141-.138.307-.277.445-.439.158-.186.389-.3.5-.535a.348.348,0,0,1,.162-.119,2.507,2.507,0,0,0,1.1-1.183.823.823,0,0,0,.068-.344c.01-.314.014-.629,0-.942a.551.551,0,0,0-.1-.3,4.083,4.083,0,0,0-.7-.836,5.779,5.779,0,0,1-.518-.52c-.07-.069-.075-.064-.247-.064a1.214,1.214,0,0,0-.09.539c.019.3.026.608.054.91a4.319,4.319,0,0,1-.137,1.34c-.02.09-.024.2-.148.228-.117-.045-.085-.144-.078-.227.016-.2.055-.391.057-.587s-.024-.408-.041-.613a3.6,3.6,0,0,1,.009-1.255c.029-.107.067-.212-.063-.281a.88.88,0,0,0-.59.975,8.657,8.657,0,0,0,.1.9,5.432,5.432,0,0,1,0,1.528.9.9,0,0,1-.036.142c-.015.045-.036.089-.058.143l-.135.009c-.019-.03-.04-.049-.037-.063a5.315,5.315,0,0,0-.062-1.725c-.045-.321-.064-.646-.087-.969-.02-.27-.029-.541-.042-.815a.2.2,0,0,0-.28.088.744.744,0,0,0-.137.29,3.159,3.159,0,0,0-.032,1.143,3.152,3.152,0,0,1,.025.352A5.171,5.171,0,0,1,8,12c-.008.263-.04.525-.067.787,0,.031-.046.058-.091.112a.69.69,0,0,1-.114-.167.392.392,0,0,1,0-.2,2.346,2.346,0,0,0-.013-.907c-.045-.41-.1-.819-.127-1.229a3.36,3.36,0,0,1,.036-.5c.007-.094.012-.189.019-.29a.443.443,0,0,0-.509.2V10.1a3.135,3.135,0,0,1-.24,1.235,1.073,1.073,0,0,0-.076.575,1.615,1.615,0,0,0,.2.826l-.094.15a.385.385,0,0,1-.274-.325,2.181,2.181,0,0,1,.029-1.444,2.709,2.709,0,0,0,.139-.51,1.261,1.261,0,0,0-.137-.794c-.1-.069-.179-.21-.379-.162-.091.531-.048,1.076-.115,1.606-.127.065-.186.011-.2-.091a1.151,1.151,0,0,1-.017-.378,4.922,4.922,0,0,0-.024-.85.926.926,0,0,0-.063-.316A.266.266,0,0,0,5.634,9.4a.34.34,0,0,0-.324.254,1.46,1.46,0,0,0-.02.437,5.473,5.473,0,0,0,.151.75,2.1,2.1,0,0,1-.086,1.072c-.038.164-.121.17-.294.033a2.459,2.459,0,0,0,.126-1.087.967.967,0,0,0-.079-.367,1.732,1.732,0,0,1-.084-.955c.01-.076.03-.151.042-.207A.761.761,0,0,0,4.709,9a1.684,1.684,0,0,1-.87-1.351.388.388,0,0,0,0-.059c-.124-.531.19-.845.558-1.137.322-.256.643-.514.957-.78a4.57,4.57,0,0,1,1.335-.847c.56-.21,1.118-.427,1.685-.617s1.141-.354,1.715-.518a4.765,4.765,0,0,1,.549-.093,1.149,1.149,0,0,0,.118-.009,10.261,10.261,0,0,1,2.607-.151,2.6,2.6,0,0,1,.4.069c.232.035.465.066.7.1.068.01.136.015.2.03.555.125,1.113.238,1.662.383a10.514,10.514,0,0,1,1.542.477,7.744,7.744,0,0,1,1.421.824c.5.363.949.8,1.414,1.2a2.487,2.487,0,0,1,.292.33.835.835,0,0,1,.19.575,2.3,2.3,0,0,1-.1.811,2.3,2.3,0,0,1-.676.943.342.342,0,0,0-.133.435.729.729,0,0,1,.025.434,3.722,3.722,0,0,1-.192.827.567.567,0,0,1-.108.122c-.117-.087-.086-.191-.081-.283.017-.351.04-.7.058-1.053,0-.086.026-.179-.084-.257l-.175.087a1.219,1.219,0,0,0-.036.715.706.706,0,0,1,.008.235.706.706,0,0,0,.159.581l-.256.09a.821.821,0,0,1-.187-.6c-.019-.245-.017-.491-.017-.737a.275.275,0,0,0-.2-.309c-.127.055-.127.145-.1.25.049.18.093.361.139.542a1.446,1.446,0,0,1-.212,1.262c-.091.127-.171.263-.261.392-.061.087-.119.184-.255.176-.092-.089-.056-.174,0-.26.089-.129.179-.258.265-.39a1.33,1.33,0,0,0-.089-1.663c-.009-.014-.034-.017-.052-.026-.109.01-.113.092-.113.172,0,.256.006.511.008.767,0,.1,0,.19-.006.263-.113.085-.19.051-.228-.022a.694.694,0,0,1-.075-.278c-.01-.265,0-.531,0-.8V9.6l-.269-.035a1.105,1.105,0,0,0-.03.2q.03.663.067,1.325a2.813,2.813,0,0,1-.111.865,1.826,1.826,0,0,0-.062.344c-.01.175,0,.352,0,.556l-.2.047a1.092,1.092,0,0,1-.085-.686c.057-.258.11-.518.162-.778a.711.711,0,0,0,.016-.205c-.036-.342-.078-.683-.12-1.024a.838.838,0,0,0-.076-.155c-.021.109-.032.158-.04.207a5.68,5.68,0,0,1-.175,1.245c-.07.175-.071.176-.28.175a.354.354,0,0,1,0-.308c.019-.056.05-.108.069-.163a4.49,4.49,0,0,0-.088-1.544.6.6,0,0,0-.109.165,1.221,1.221,0,0,0-.013.264c0,.344,0,.688.006,1.032,0,.118-.016.217-.149.249-.12-.031-.105-.129-.105-.215,0-.314,0-.629,0-.944,0-.185-.027-.37-.045-.59a.494.494,0,0,0-.175.436c-.011.363-.007.727-.01,1.091a1.275,1.275,0,0,1-.013.263.209.209,0,0,1-.107.126c-.043.018-.1-.01-.189-.022l.077-2.153-.268-.041a.618.618,0,0,0-.026.166,5.518,5.518,0,0,1,.008,1.265,3.447,3.447,0,0,1-.069.5.214.214,0,0,1-.1.135c-.041.021-.1-.005-.174-.012a5.183,5.183,0,0,0-.062-1.961c-.258-.059-.388.093-.506.249-.325.43-.634.873-.966,1.3a.59.59,0,0,1-.846.073.786.786,0,0,1-.009-.139,6.4,6.4,0,0,0-.093-1.26,7.4,7.4,0,0,0-.122-.752c-.035-.168-.046-.166-.239-.26-.084.056-.057.138-.037.209a6.6,6.6,0,0,1,.147,1.875,3.107,3.107,0,0,1-.04.324H12.52a10.142,10.142,0,0,1-.017-1.18c-.042-.378-.063-.759-.093-1.131-.246-.048-.247-.047-.365.244a4.978,4.978,0,0,1,.112,1.361c-.007.2.048.409.052.615a3.2,3.2,0,0,1-.052.464c-.062.447-.142.893-.186,1.342a7.162,7.162,0,0,1-.321,1.458c.175.167.175.167.424,0,.031-.162.062-.336.1-.508.053-.249.111-.5.165-.746a1.973,1.973,0,0,0,.026-.642,4.5,4.5,0,0,1,.006-.734.591.591,0,0,1,.077-.189c.162-.022.252.062.216.16-.107.289.045.561.026.843a1.2,1.2,0,0,1-.088.457.509.509,0,0,0-.059.339.586.586,0,0,1-.041.256c-.055.2-.124.393-.171.594-.027.12-.061.262.119.313ZM13.453,10.1a4.015,4.015,0,0,0,1.156-1.42l-.168-.164h-.362l-.237-.166c-.2.116-.214.317-.273.487-.048.137-.045.293-.1.425a1.676,1.676,0,0,0-.077.694C13.389,9.993,13.425,10.035,13.453,10.1Zm-2.2,4.649c.062-.128.163-.243.162-.356a2.141,2.141,0,0,1,.136-.565c.051-.208.107-.416.151-.626.022-.108.07-.233-.1-.317a3.827,3.827,0,0,0-.923,1.224l.05.579A.938.938,0,0,0,11.251,14.744Zm.676-3.26a1.168,1.168,0,0,0-.417-1.353c-.454-.372-.877-.783-1.317-1.171a5.428,5.428,0,0,0-.443-.341.655.655,0,0,0-.19-.046.64.64,0,0,0,.075.162c.132.132.268.259.4.385A11.068,11.068,0,0,1,11.6,10.708a.409.409,0,0,1,.1.351,2.682,2.682,0,0,0-.029.373Zm1.609-.692c.137.05.2-.017.269-.1.1-.121.209-.233.306-.355a4.046,4.046,0,0,0,.589-.806.516.516,0,0,1,.3-.322l.323-.41c-.185-.12-.295-.119-.426.033-.108.125-.2.27-.292.405a7.973,7.973,0,0,1-1.042,1.234A.211.211,0,0,0,13.536,10.792ZM11.177,8.643l-.351.214a1.562,1.562,0,0,1-.147-.146c-.091-.115-.169-.241-.265-.352-.08-.092-.174-.184-.334-.1a.452.452,0,0,0,.058.113c.422.424.843.848,1.271,1.265.037.036.116.029.228.053-.143-.335-.263-.618-.386-.9C11.232,8.74,11.206,8.7,11.177,8.643ZM9.831,14.658a.673.673,0,0,0,.583.067.537.537,0,0,0,0-.557l-.249.311a1.444,1.444,0,0,0-.156.059C9.961,14.563,9.918,14.6,9.831,14.658Zm6.45.065a.7.7,0,0,0-.816-.092A1.149,1.149,0,0,0,16.281,14.723ZM8.735,5.294a.16.16,0,0,0,.218.125c.113-.03.19-.094.16-.227C8.88,5.049,8.849,5.058,8.735,5.294ZM19.519,8.66c-.015-.134-.054-.205-.146-.2-.145.009-.216.108-.268.295l.116.132ZM9.365,14.709c.3.094.372.029.327-.276C9.47,14.431,9.443,14.454,9.365,14.709ZM7.249,9.155c.1-.13.108-.218.009-.292a.176.176,0,0,0-.219,0c-.1.07-.1.156-.019.274Zm1.645-.127a.191.191,0,0,0,.055-.317.31.31,0,0,0-.276.039C8.649,8.917,8.733,9,8.894,9.028ZM4.373,7.893l.074.283c.17.057.259.006.3-.147C4.675,7.883,4.572,7.827,4.373,7.893Zm1.434-.8-.1.23a.235.235,0,0,0,.343.051C6.053,7.171,6.053,7.171,5.807,7.094Zm10.137-.809.025-.221c-.232-.043-.232-.043-.327.123C15.739,6.31,15.739,6.31,15.944,6.285Zm-.583-1.477c-.037.108-.039.2.057.242a.183.183,0,0,0,.244-.085C15.586,4.782,15.586,4.782,15.361,4.808Zm-1.752.923-.029-.249c-.112-.056-.2-.067-.26.019a.6.6,0,0,0-.042.205Zm-2.976.08c-.021-.25-.094-.285-.3-.149C10.418,5.862,10.418,5.862,10.633,5.811Zm4.982,1.177c-.152-.122-.23-.129-.3-.038a.143.143,0,0,0,.058.22C15.473,7.221,15.529,7.181,15.615,6.988ZM7.193,6.027l-.273.029c-.02.241-.016.245.254.253ZM12.207,8.02c-.221-.1-.221-.1-.346.081C12.048,8.28,12.132,8.265,12.207,8.02Zm.8-.3c.009-.2-.026-.267-.135-.266a.119.119,0,0,0-.13.123C12.738,7.683,12.8,7.716,13.008,7.717Zm.9-3.051c.09.1.182.154.285.062.085-.077.046-.158-.04-.217A.2.2,0,0,0,13.911,4.666Zm-4.77.248c-.033-.171-.085-.26-.219-.236-.094.016-.153.079-.105.217ZM14.679,6.18c-.1-.1-.191-.169-.321-.065.011.166.014.182.068.2A.187.187,0,0,0,14.679,6.18Zm-3.072-.117c-.062-.17-.141-.218-.27-.134,0,.22.029.271.164.255Zm2.247.713c-.125-.036-.228-.063-.275.08a.137.137,0,0,0,.119.166C13.794,7.031,13.829,6.982,13.854,6.776ZM5.1,7.507c0,.168.046.248.155.255A.2.2,0,0,0,5.4,7.67c.015-.024-.027-.117-.064-.134A.9.9,0,0,0,5.1,7.507Zm3.879-.079c-.124-.144-.146-.166-.207-.135s-.083.085-.126.132C8.832,7.553,8.832,7.553,8.977,7.428Zm-3.764-.8c.144.188.2.214.3.155.081-.045.1-.113.023-.215Zm7.405-.163c.2-.11.211-.194.128-.3-.107-.028-.2-.029-.279.143Zm7.411.753c-.08-.166-.142-.208-.217-.156a.145.145,0,0,0-.027.2C19.87,7.342,19.954,7.342,20.029,7.214ZM5.536,8.721c-.052-.192-.1-.246-.2-.214s-.126.106-.066.214ZM4.864,6.874c-.137-.023-.232-.027-.262.1.14.139.236.158.314.045ZM10.915,7.9c-.067-.1-.129-.169-.24-.1-.028.016-.043.056-.073.1l.158.141Zm.769-.517c.06.1.124.13.208.079s.092-.119.031-.212C11.81,7.214,11.728,7.245,11.684,7.387ZM6.67,7.059c.024.157.073.221.179.188.08-.025.124-.085.055-.2Zm4.107.008c.168-.023.168-.023.164-.231-.063.009-.139,0-.18.03C10.687,6.926,10.712,7,10.777,7.067ZM11.95,4.012c-.1-.066-.192-.082-.264.039.12.135.187.16.264.089Zm5.778,4.3a2.239,2.239,0,0,0-.2.146c-.014.013,0,.053,0,.092a.37.37,0,0,0,.111.026.767.767,0,0,0,.148-.047Zm.759-2.193c.114-.057.117-.133.065-.2a.124.124,0,0,0-.2-.011C18.306,6.027,18.372,6.083,18.487,6.118ZM18.215,7.2c.091.126.173.147.271.045C18.375,7.065,18.375,7.065,18.215,7.2ZM16.7,8.582c-.156-.188-.212-.211-.274-.128-.024.033,0,.1,0,.179Zm-.057-.72c.121-.094.137-.18.064-.285C16.524,7.654,16.524,7.654,16.638,7.862ZM6.28,8.173c.149.056.233.06.294-.073L6.4,7.979Zm11.047-1.83c-.051-.151-.132-.167-.276-.088l.12.2ZM12.431,5a.178.178,0,0,0-.257-.061c-.041.088,0,.135.069.164C12.333,5.136,12.387,5.093,12.431,5ZM11.083,4.9c.007-.179-.05-.237-.208-.209l-.024.194ZM9.615,6.164C9.59,6,9.522,5.975,9.4,6l-.028.192Zm3.353-1.491c.083-.095.14-.132.144-.173.008-.079-.046-.125-.131-.11-.018,0-.033.018-.068.04Zm1.565,3.035c.085.111.085.111.213.123.057-.057.067-.122,0-.172A.131.131,0,0,0,14.533,7.708ZM19.24,6.36c.113.133.113.133.248.027C19.415,6.276,19.337,6.256,19.24,6.36Zm-10.493,0c.047-.081.043-.147-.036-.178s-.148.006-.166.1C8.588,6.4,8.662,6.4,8.747,6.36Zm-.989-.976c.092.124.165.146.26.029C7.96,5.276,7.89,5.25,7.758,5.384Zm2.225-.8c-.154-.042-.214,0-.252.108l.143.119Zm-.2,2.341a.47.47,0,0,0-.089.064.24.24,0,0,0-.023.076c.055.089.117.1.183.024.017-.018.018-.05.029-.082Zm-1.91-.155a.464.464,0,0,0-.118-.027c-.031,0-.062.024-.128.052.059.049.092.1.133.105C7.831,6.911,7.889,6.879,7.873,6.769Zm-.1,1.03-.056.031.032.164.14-.111ZM6.2,6.414c-.1-.12-.1-.123-.17-.082-.014.009-.008.05-.012.078a.276.276,0,0,0,.08.036A.353.353,0,0,0,6.2,6.414Zm4.106,7.5h-.035l.015.018Z"/>
  <g id="Waves">
    <path class="cls-2" d="M21.351,20.733l-.238-.152a2.162,2.162,0,0,0-1.832-.3c-.348.1-.688.232-1.026.361-.385.147-.761.317-1.148.459a2.576,2.576,0,0,1-1.79,0c-.3-.1-.586-.226-.878-.341a4.56,4.56,0,0,0-1.273-.346,3.005,3.005,0,0,0-1.36.176c-.431.166-.854.351-1.282.523A3.632,3.632,0,0,1,8.8,21.43a9.881,9.881,0,0,1-1.129-.2c-.585-.128-1.163-.286-1.749-.41a3.6,3.6,0,0,0-1.607-.033,3.235,3.235,0,0,0-.573.223c-.112.052-.213.1-.33.021a.354.354,0,0,1-.151-.36.438.438,0,0,1,.306-.4,7.933,7.933,0,0,1,.9-.261,4.576,4.576,0,0,1,2.04.143q.828.207,1.657.408a3.223,3.223,0,0,0,2.156-.227c.258-.119.515-.242.774-.36a4.025,4.025,0,0,1,1.619-.392,3.474,3.474,0,0,1,1.539.334,10.242,10.242,0,0,0,1.008.412,2.877,2.877,0,0,0,1.91,0c.425-.15.837-.337,1.251-.516a4.385,4.385,0,0,1,1.062-.339,2.91,2.91,0,0,1,1.391.152c.158.053.309.126.464.188a.661.661,0,0,1,.347.345C21.844,20.468,21.723,20.677,21.351,20.733Z"/>
    <path class="cls-2" d="M19.467,22.244c-.315-.065-.572-.134-.833-.169a1.577,1.577,0,0,0-.89.146c-.151.071-.3.139-.452.215a2.425,2.425,0,0,1-1.942.148c-.363-.12-.712-.278-1.069-.415a8.927,8.927,0,0,0-.855-.311,2.3,2.3,0,0,0-1.364.083c-.445.153-.884.324-1.332.471-.372.121-.75.229-1.13.325A2.535,2.535,0,0,1,8.289,22.7c-.454-.126-.9-.264-1.357-.395-.122-.036-.246-.066-.371-.094a1.445,1.445,0,0,0-1.031.113.347.347,0,0,1-.336-.347c-.009-.171.112-.294.332-.359a2.969,2.969,0,0,1,1.658-.038c.425.117.851.238,1.265.388a2.07,2.07,0,0,0,1.414.014c.362-.122.714-.274,1.068-.42a7.294,7.294,0,0,1,1.334-.457,3.089,3.089,0,0,1,2.324.379,4.678,4.678,0,0,0,.739.361,1.765,1.765,0,0,0,1.323,0q.37-.146.735-.3a3.09,3.09,0,0,1,2.1-.112.385.385,0,0,1,.314.31.409.409,0,0,1-.182.435A.875.875,0,0,1,19.467,22.244Z"/>
    <path class="cls-2" d="M7.257,22.717c.145.072.293.148.442.219a2.5,2.5,0,0,0,1.346.227,7.454,7.454,0,0,0,1.714-.405c.344-.118.687-.236,1.037-.332a3.69,3.69,0,0,1,2.585.225,4.944,4.944,0,0,0,1.365.446,2.714,2.714,0,0,0,1.877-.311.3.3,0,0,1,.477.234.4.4,0,0,1-.254.474,5.956,5.956,0,0,1-1.554.311,4.122,4.122,0,0,1-1.468-.268c-.213-.075-.426-.152-.635-.236a3.52,3.52,0,0,0-2.365-.116c-.659.191-1.329.347-1.991.526a4.585,4.585,0,0,1-2.577-.188A.514.514,0,0,1,7.2,23.5a.439.439,0,0,1-.3-.4C6.9,22.9,7.02,22.776,7.257,22.717Z"/>
    <path class="cls-2" d="M14.98,24.873c-.106-.02-.252-.036-.392-.075-.284-.079-.563-.172-.844-.257a3.859,3.859,0,0,0-2.289-.009,6.471,6.471,0,0,1-1.378.3,4.238,4.238,0,0,1-1.4-.155.3.3,0,0,1-.246-.348.351.351,0,0,1,.362-.285,1.788,1.788,0,0,1,.4.074,2.655,2.655,0,0,0,1.423,0c.523-.128,1.054-.226,1.581-.334a3.2,3.2,0,0,1,1.484.1c.3.081.6.174.9.263a2.06,2.06,0,0,0,.99.024c.106-.02.21-.048.316-.069.077-.015.154-.028.232-.037a.36.36,0,0,1,.439.288c.029.207-.128.373-.377.4-.175.017-.351.031-.526.05C15.451,24.819,15.237,24.844,14.98,24.873Z"/>
    <path class="cls-2" d="M14.848,25.536a.311.311,0,0,1-.34.292c-.373.007-.747.034-1.118.015-.529-.028-1.055-.105-1.584-.131a6.3,6.3,0,0,0-.876.06c-.127.013-.249.057-.375.075a.314.314,0,0,1-.372-.165.36.36,0,0,1,.178-.425,1.533,1.533,0,0,1,.333-.111,5,5,0,0,1,1.841-.06c.445.058.9.049,1.35.074a4.746,4.746,0,0,1,.584.053A.412.412,0,0,1,14.848,25.536Z"/>
  </g>
  <g>
    <path class="cls-2" d="M3.678,16.577H3.331v1.962l-.487-.258v-1.7H2.432l-.179-.321h.6a.65.65,0,0,1-.1-.328.455.455,0,0,1,.054-.216.506.506,0,0,1,.167-.176.908.908,0,0,1,.289-.12,1.783,1.783,0,0,1,.421-.043,2.3,2.3,0,0,1,.553.064,2.329,2.329,0,0,1,.493.182,2.626,2.626,0,0,1,.444.284,3.974,3.974,0,0,1,.4.369H5.125c-.044-.034-.094-.071-.152-.113s-.122-.084-.193-.127-.147-.084-.229-.125A2.457,2.457,0,0,0,4.3,15.8a1.92,1.92,0,0,0-.28-.077,1.531,1.531,0,0,0-.3-.028.977.977,0,0,0-.23.023.491.491,0,0,0-.16.064.263.263,0,0,0-.093.1.258.258,0,0,0-.03.124.356.356,0,0,0,.023.122.616.616,0,0,0,.072.131h.317Z"/>
    <path class="cls-2" d="M6.251,16.577H5.844v2.064l-.486-.258v-.4l-.011,0a1.136,1.136,0,0,1-.247.082,1.191,1.191,0,0,1-.61-.028,1.092,1.092,0,0,1-.3-.15.758.758,0,0,1-.209-.222.519.519,0,0,1-.077-.274.5.5,0,0,1,.062-.241.637.637,0,0,1,.176-.2.915.915,0,0,1,.273-.134,1.166,1.166,0,0,1,.35-.049c.024,0,.056,0,.1,0A1.123,1.123,0,0,1,5,16.782a1.314,1.314,0,0,1,.168.044,1.212,1.212,0,0,1,.187.079h.008v-.327H3.607v-.321H6.251Zm-1.872.82a.269.269,0,0,0,.032.124.351.351,0,0,0,.092.114.471.471,0,0,0,.15.085.569.569,0,0,0,.205.034.743.743,0,0,0,.192-.024l-.509-.584a.364.364,0,0,0-.12.113A.253.253,0,0,0,4.379,17.4Zm.986-.165a.735.735,0,0,0-.249-.132.886.886,0,0,0-.243-.037c-.022,0-.044,0-.064,0l-.061.007.492.564a.366.366,0,0,0,.093-.1.213.213,0,0,0,.032-.107Z"/>
    <path class="cls-2" d="M7.564,17.946a.753.753,0,0,0,.2-.084.128.128,0,0,0,.063-.11.137.137,0,0,0-.021-.072.193.193,0,0,0-.069-.058.427.427,0,0,0-.122-.039.928.928,0,0,0-.179-.015,1.08,1.08,0,0,0-.172.013.473.473,0,0,0-.149.044.271.271,0,0,0-.105.086.223.223,0,0,0-.041.137.327.327,0,0,0,.043.162.59.59,0,0,0,.114.139.974.974,0,0,0,.163.118,2.294,2.294,0,0,0,.388.175c.065.023.126.042.182.058l-.185.3c-.1-.031-.193-.065-.29-.1s-.188-.076-.276-.118a2.022,2.022,0,0,1-.243-.138,1.135,1.135,0,0,1-.2-.164.718.718,0,0,1-.129-.2.566.566,0,0,1-.047-.23.5.5,0,0,1,.048-.223.528.528,0,0,1,.131-.171.966.966,0,0,1-.073-.093.837.837,0,0,1-.057-.1.663.663,0,0,1-.037-.1.364.364,0,0,1-.014-.1.276.276,0,0,1,.026-.116.261.261,0,0,1,.085-.1.456.456,0,0,1,.152-.069.876.876,0,0,1,.228-.025h.76v-.19H6.12v-.321H8.669v.321H8.237v.494H7.124a.212.212,0,0,0-.05,0,.156.156,0,0,0-.047.017.094.094,0,0,0-.049.087.154.154,0,0,0,.012.061.191.191,0,0,0,.033.052,1.772,1.772,0,0,1,.748-.019.98.98,0,0,1,.277.093.536.536,0,0,1,.19.16.386.386,0,0,1,.069.23.364.364,0,0,1-.05.2.491.491,0,0,1-.131.142.856.856,0,0,1-.184.1,2.152,2.152,0,0,1-.209.073Z"/>
    <path class="cls-2" d="M9.844,16.577H9.437v2.167l-.486-.258V16.577H8.539v-.321h1.3Z"/>
    <path class="cls-2" d="M12.054,16.577h-.8a1.269,1.269,0,0,1,.113.219.615.615,0,0,1,.042.225.528.528,0,0,1-.037.2.464.464,0,0,1-.113.165.676.676,0,0,1-.194.125,1.1,1.1,0,0,1-.283.074l0,.006c.053.057.106.112.16.165s.111.106.17.157.123.1.191.153.366.3.445.348l-.307.261c-.1-.059-.419-.32-.51-.39s-.177-.145-.259-.222-.159-.155-.231-.234-.138-.156-.2-.231-.115-.147-.163-.215-.088-.129-.122-.183l.412-.162a.5.5,0,0,0,.136.182.259.259,0,0,0,.153.052.272.272,0,0,0,.1-.018.237.237,0,0,0,.082-.055.262.262,0,0,0,.057-.089.314.314,0,0,0,.021-.12.538.538,0,0,0-.044-.2.672.672,0,0,0-.131-.2H9.713v-.321h2.042Z"/>
    <path class="cls-2" d="M15.363,16.577h-.406v1.806l-.487-.258v-.291l-.008,0a1.023,1.023,0,0,1-.458.107c-.028,0-.066,0-.116,0a.942.942,0,0,1-.341-.1.567.567,0,0,1-.165-.126.646.646,0,0,1-.121-.2.8.8,0,0,1-.048-.294v-.635h-.3l-.3-.321h2.745Zm-.893,0H13.7v.658a.492.492,0,0,0,.027.177.273.273,0,0,0,.072.109.252.252,0,0,0,.108.055.545.545,0,0,0,.13.015.535.535,0,0,0,.25-.053.612.612,0,0,0,.183-.154Z"/>
    <path class="cls-2" d="M14.2,18.417a1.344,1.344,0,0,1,.261-.082,1.282,1.282,0,0,1,.271-.029,1.019,1.019,0,0,1,.224.024.648.648,0,0,1,.187.07.4.4,0,0,1,.13.119.3.3,0,0,1,.048.169.306.306,0,0,1-.068.2.49.49,0,0,1-.183.137,1.012,1.012,0,0,1-.264.079,1.74,1.74,0,0,1-.311.026A2.152,2.152,0,0,1,13.746,19a1.694,1.694,0,0,1-.266-.121,1.73,1.73,0,0,1-.194-.126l.287-.26a2.135,2.135,0,0,0,.2.147,1.218,1.218,0,0,0,.444.174,1.412,1.412,0,0,0,.269.023c.047,0,.093,0,.137-.006a.512.512,0,0,0,.116-.025.2.2,0,0,0,.081-.048.118.118,0,0,0,.016-.137.11.11,0,0,0-.041-.039.184.184,0,0,0-.061-.023.38.38,0,0,0-.077-.007.567.567,0,0,0-.091.007.843.843,0,0,0-.09.019c-.028.008-.055.017-.079.026a.506.506,0,0,0-.059.026Z"/>
    <path class="cls-2" d="M16.538,16.577h-.407v1.962l-.487-.258v-1.7h-.412v-.321h.42a.648.648,0,0,1-.1-.328.455.455,0,0,1,.054-.216.488.488,0,0,1,.167-.176.889.889,0,0,1,.289-.12,1.768,1.768,0,0,1,.42-.043,2.275,2.275,0,0,1,1.046.246,2.626,2.626,0,0,1,.444.284,3.974,3.974,0,0,1,.4.369h-.447c-.044-.034-.094-.071-.152-.113s-.122-.084-.193-.127-.147-.084-.229-.125A2.369,2.369,0,0,0,17.1,15.8a1.92,1.92,0,0,0-.28-.077,1.531,1.531,0,0,0-.3-.028.962.962,0,0,0-.229.023.5.5,0,0,0-.161.064.263.263,0,0,0-.093.1.258.258,0,0,0-.03.124.335.335,0,0,0,.024.122.568.568,0,0,0,.071.131h.437Z"/>
    <path class="cls-2" d="M18.568,18.228v-1.1l-.044-.005a.324.324,0,0,0-.045,0,.358.358,0,0,0-.137.023.276.276,0,0,0-.095.06.256.256,0,0,0-.056.086.272.272,0,0,0-.018.1.2.2,0,0,0,0,.041l.007.042h-.433c-.007-.044-.017-.087-.028-.131a.443.443,0,0,0-.049-.115.255.255,0,0,0-.078-.082.209.209,0,0,0-.117-.032.206.206,0,0,0-.1.021.187.187,0,0,0-.067.058.244.244,0,0,0-.039.088.467.467,0,0,0-.012.109.5.5,0,0,0,.072.266.792.792,0,0,0,.19.213,1.414,1.414,0,0,0,.271.168,3.3,3.3,0,0,0,.317.132l-.216.281c-.049-.015-.11-.037-.185-.067a2.264,2.264,0,0,1-.237-.113,2.607,2.607,0,0,1-.251-.159,1.439,1.439,0,0,1-.229-.2.977.977,0,0,1-.165-.245.661.661,0,0,1-.063-.286.62.62,0,0,1,.048-.243.6.6,0,0,1,.139-.2.673.673,0,0,1,.218-.134.789.789,0,0,1,.287-.049.758.758,0,0,1,.189.021.649.649,0,0,1,.14.055.449.449,0,0,1,.1.071.742.742,0,0,1,.069.071h.01a.409.409,0,0,1,.089-.092.594.594,0,0,1,.113-.063.536.536,0,0,1,.126-.036.715.715,0,0,1,.13-.012q.035,0,.069,0l.073.009v-.2H16.407v-.321h3.054v.321h-.406v1.909Z"/>
    <path class="cls-2" d="M19.331,16.256h3.177l.239.321H22.1v1.961l-.486-.258V17.5h-.96a.874.874,0,0,1-.26.08l0,.006a1.452,1.452,0,0,0,.121.165,1.826,1.826,0,0,0,.15.157,2.3,2.3,0,0,0,.184.153c.067.05.14.1.22.152l-.308.261a2.7,2.7,0,0,1-.257-.2q-.127-.11-.246-.228c-.078-.079-.153-.159-.224-.241s-.137-.161-.2-.239-.115-.151-.164-.22-.089-.132-.123-.186L19.959,17a.609.609,0,0,0,.15.2.26.26,0,0,0,.163.063.165.165,0,0,0,.085-.02.172.172,0,0,0,.06-.054.264.264,0,0,0,.034-.084A.445.445,0,0,0,20.462,17a.593.593,0,0,0-.042-.22.724.724,0,0,0-.133-.2h-.956Zm2.284.926v-.6h-.822a1.122,1.122,0,0,1,.11.219.636.636,0,0,1,.041.225.552.552,0,0,1-.006.081c0,.027-.009.053-.015.08Z"/>
  </g>
</svg>